# xmcd
#
# Track frame offsets: 
#        150
#        17355
#        31792
#        47397
#        69502
#        74527
#        82870
#        89747
#        103410
#        120770
#        135130
#        147605
#
# Disc length: 2167 seconds
#
# Revision: 1
# Processed by: cddbd v1.5.2PL0 Copyright (c) Steve Scherf et al.
# Submitted via: ExactAudioCopy v1.0b1
#
DISCID=9508750c
DTITLE=King Brothers - King Brothers
DYEAR=1900
DGENRE=
TTITLE0=Go To Hell!!
TTITLE1=Sell Your Soul
TTITLE2=Kill Everyone Blues
TTITLE3=Get On The Bus
TTITLE4=I Want To Burn Out
TTITLE5=King Beat
TTITLE6=Rot Now!!
TTITLE7=Conntto 8!!!
TTITLE8=Shut Up
TTITLE9=King Of Boogie
TTITLE10=Tear It Up Blues
TTITLE11=Spy Boys
EXTD=Bulb Records release BLB-057\nJapanese blues/noise
EXTT0=
EXTT1=
EXTT2=
EXTT3=
EXTT4=
EXTT5=
EXTT6=
EXTT7=
EXTT8=
EXTT9=
EXTT10=
EXTT11=
PLAYORDER=
